<svg width="94" height="69" viewBox="0 0 94 69" fill="none" xmlns="http://www.w3.org/2000/svg">
<g opacity="0.7">
<rect width="94" height="69" rx="10" fill="#4A518F" fill-opacity="0.2"/>
<rect x="0.5" y="0.5" width="93" height="68" rx="9.5" stroke="#1C2572" stroke-opacity="0.3"/>
</g>
<path opacity="0.8" d="M36.5693 45C36.3533 45 36.2053 44.896 36.1253 44.688L33.4493 36.972L33.4253 36.84C33.4253 36.776 33.4493 36.72 33.4973 36.672C33.5453 36.624 33.6013 36.6 33.6653 36.6H34.2893C34.4413 36.6 34.5493 36.672 34.6133 36.816L36.9533 43.62L39.3053 36.816C39.3213 36.768 39.3573 36.72 39.4133 36.672C39.4693 36.624 39.5373 36.6 39.6173 36.6H40.2413C40.3053 36.6 40.3613 36.624 40.4093 36.672C40.4653 36.72 40.4933 36.776 40.4933 36.84L40.4693 36.972L37.7813 44.688C37.7013 44.896 37.5573 45 37.3493 45H36.5693ZM41.9606 37.596C41.8806 37.596 41.8126 37.572 41.7566 37.524C41.7086 37.468 41.6846 37.4 41.6846 37.32V36.672C41.6846 36.592 41.7086 36.524 41.7566 36.468C41.8126 36.412 41.8806 36.384 41.9606 36.384H42.7166C42.7966 36.384 42.8646 36.412 42.9206 36.468C42.9766 36.524 43.0046 36.592 43.0046 36.672V37.32C43.0046 37.4 42.9766 37.468 42.9206 37.524C42.8646 37.572 42.7966 37.596 42.7166 37.596H41.9606ZM42.0566 45C41.9766 45 41.9086 44.976 41.8526 44.928C41.8046 44.872 41.7806 44.804 41.7806 44.724V39.036C41.7806 38.956 41.8046 38.892 41.8526 38.844C41.9086 38.788 41.9766 38.76 42.0566 38.76H42.6326C42.7126 38.76 42.7766 38.788 42.8246 38.844C42.8806 38.892 42.9086 38.956 42.9086 39.036V44.724C42.9086 44.804 42.8806 44.872 42.8246 44.928C42.7766 44.976 42.7126 45 42.6326 45H42.0566ZM47.1828 45.12C46.3588 45.12 45.6988 44.868 45.2028 44.364C44.7148 43.852 44.4468 43.156 44.3988 42.276L44.3868 41.868L44.3988 41.472C44.4548 40.608 44.7268 39.92 45.2148 39.408C45.7108 38.896 46.3628 38.64 47.1708 38.64C48.0588 38.64 48.7468 38.924 49.2348 39.492C49.7228 40.052 49.9668 40.812 49.9668 41.772V41.976C49.9668 42.056 49.9388 42.124 49.8828 42.18C49.8348 42.228 49.7708 42.252 49.6908 42.252H45.5388V42.36C45.5628 42.88 45.7188 43.324 46.0068 43.692C46.3028 44.052 46.6908 44.232 47.1708 44.232C47.5388 44.232 47.8388 44.16 48.0708 44.016C48.3108 43.864 48.4868 43.708 48.5988 43.548C48.6708 43.452 48.7228 43.396 48.7548 43.38C48.7948 43.356 48.8628 43.344 48.9588 43.344H49.5468C49.6188 43.344 49.6788 43.364 49.7268 43.404C49.7748 43.444 49.7988 43.5 49.7988 43.572C49.7988 43.748 49.6868 43.96 49.4628 44.208C49.2468 44.456 48.9388 44.672 48.5388 44.856C48.1468 45.032 47.6948 45.12 47.1828 45.12ZM48.8268 41.424V41.388C48.8268 40.836 48.6748 40.388 48.3708 40.044C48.0748 39.692 47.6748 39.516 47.1708 39.516C46.6668 39.516 46.2668 39.692 45.9708 40.044C45.6828 40.388 45.5388 40.836 45.5388 41.388V41.424H48.8268ZM52.8936 45C52.7896 45 52.7096 44.976 52.6536 44.928C52.5976 44.88 52.5496 44.804 52.5096 44.7L50.8056 39.132L50.7816 39.012C50.7816 38.94 50.8056 38.88 50.8536 38.832C50.9096 38.784 50.9696 38.76 51.0336 38.76H51.5616C51.6416 38.76 51.7056 38.784 51.7536 38.832C51.8096 38.872 51.8456 38.916 51.8616 38.964L53.1936 43.488L54.6216 39.012C54.6376 38.948 54.6736 38.892 54.7296 38.844C54.7856 38.788 54.8616 38.76 54.9576 38.76H55.3656C55.4616 38.76 55.5376 38.788 55.5936 38.844C55.6496 38.892 55.6856 38.948 55.7016 39.012L57.1296 43.488L58.4616 38.964C58.4696 38.924 58.4976 38.88 58.5456 38.832C58.6016 38.784 58.6696 38.76 58.7496 38.76H59.2896C59.3536 38.76 59.4096 38.784 59.4576 38.832C59.5056 38.88 59.5296 38.94 59.5296 39.012L59.5056 39.132L57.8136 44.7C57.7736 44.804 57.7256 44.88 57.6696 44.928C57.6136 44.976 57.5296 45 57.4176 45H56.9496C56.7336 45 56.6016 44.9 56.5536 44.7L55.1616 40.404L53.7696 44.7C53.7056 44.9 53.5696 45 53.3616 45H52.8936ZM27.652 59C27.572 59 27.504 58.976 27.448 58.928C27.4 58.872 27.376 58.804 27.376 58.724V50.888C27.376 50.8 27.4 50.732 27.448 50.684C27.504 50.628 27.572 50.6 27.652 50.6H28.264C28.352 50.6 28.42 50.628 28.468 50.684C28.524 50.732 28.552 50.8 28.552 50.888V54.2H32.68V50.888C32.68 50.8 32.704 50.732 32.752 50.684C32.808 50.628 32.876 50.6 32.956 50.6H33.568C33.656 50.6 33.724 50.628 33.772 50.684C33.828 50.732 33.856 50.8 33.856 50.888V58.724C33.856 58.804 33.828 58.872 33.772 58.928C33.716 58.976 33.648 59 33.568 59H32.956C32.876 59 32.808 58.976 32.752 58.928C32.704 58.872 32.68 58.804 32.68 58.724V55.28H28.552V58.724C28.552 58.804 28.524 58.872 28.468 58.928C28.412 58.976 28.344 59 28.264 59H27.652ZM35.9664 51.596C35.8864 51.596 35.8184 51.572 35.7624 51.524C35.7144 51.468 35.6904 51.4 35.6904 51.32V50.672C35.6904 50.592 35.7144 50.524 35.7624 50.468C35.8184 50.412 35.8864 50.384 35.9664 50.384H36.7224C36.8024 50.384 36.8704 50.412 36.9264 50.468C36.9824 50.524 37.0104 50.592 37.0104 50.672V51.32C37.0104 51.4 36.9824 51.468 36.9264 51.524C36.8704 51.572 36.8024 51.596 36.7224 51.596H35.9664ZM36.0624 59C35.9824 59 35.9144 58.976 35.8584 58.928C35.8104 58.872 35.7864 58.804 35.7864 58.724V53.036C35.7864 52.956 35.8104 52.892 35.8584 52.844C35.9144 52.788 35.9824 52.76 36.0624 52.76H36.6384C36.7184 52.76 36.7824 52.788 36.8304 52.844C36.8864 52.892 36.9144 52.956 36.9144 53.036V58.724C36.9144 58.804 36.8864 58.872 36.8304 58.928C36.7824 58.976 36.7184 59 36.6384 59H36.0624ZM40.8527 59.12C40.2927 59.12 39.8207 59.032 39.4367 58.856C39.0607 58.672 38.7767 58.464 38.5847 58.232C38.4007 58 38.3087 57.808 38.3087 57.656C38.3087 57.576 38.3367 57.516 38.3927 57.476C38.4567 57.428 38.5207 57.404 38.5847 57.404H39.1247C39.2047 57.404 39.2767 57.444 39.3407 57.524C39.5327 57.748 39.7407 57.924 39.9647 58.052C40.1887 58.18 40.4887 58.244 40.8647 58.244C41.2807 58.244 41.6167 58.164 41.8727 58.004C42.1367 57.836 42.2687 57.608 42.2687 57.32C42.2687 57.128 42.2127 56.972 42.1007 56.852C41.9967 56.724 41.8127 56.616 41.5487 56.528C41.2927 56.432 40.9087 56.328 40.3967 56.216C39.7007 56.064 39.2047 55.844 38.9087 55.556C38.6207 55.268 38.4767 54.896 38.4767 54.44C38.4767 54.136 38.5647 53.848 38.7407 53.576C38.9247 53.296 39.1887 53.072 39.5327 52.904C39.8847 52.728 40.3047 52.64 40.7927 52.64C41.3047 52.64 41.7407 52.724 42.1007 52.892C42.4607 53.06 42.7287 53.26 42.9047 53.492C43.0887 53.716 43.1807 53.904 43.1807 54.056C43.1807 54.128 43.1527 54.188 43.0967 54.236C43.0487 54.284 42.9887 54.308 42.9167 54.308H42.4127C42.3167 54.308 42.2367 54.268 42.1727 54.188C42.0447 54.036 41.9327 53.92 41.8367 53.84C41.7487 53.752 41.6167 53.676 41.4407 53.612C41.2727 53.548 41.0567 53.516 40.7927 53.516C40.4087 53.516 40.1127 53.6 39.9047 53.768C39.6967 53.928 39.5927 54.14 39.5927 54.404C39.5927 54.572 39.6367 54.716 39.7247 54.836C39.8127 54.948 39.9807 55.052 40.2287 55.148C40.4847 55.244 40.8527 55.344 41.3327 55.448C42.0927 55.608 42.6287 55.84 42.9407 56.144C43.2607 56.44 43.4207 56.82 43.4207 57.284C43.4207 57.628 43.3207 57.94 43.1207 58.22C42.9207 58.5 42.6247 58.72 42.2327 58.88C41.8487 59.04 41.3887 59.12 40.8527 59.12ZM47.2342 59C45.9702 59 45.3382 58.296 45.3382 56.888V53.72H44.4022C44.3222 53.72 44.2542 53.696 44.1982 53.648C44.1502 53.592 44.1262 53.524 44.1262 53.444V53.036C44.1262 52.956 44.1502 52.892 44.1982 52.844C44.2542 52.788 44.3222 52.76 44.4022 52.76H45.3382V50.756C45.3382 50.676 45.3622 50.612 45.4102 50.564C45.4662 50.508 45.5342 50.48 45.6142 50.48H46.1782C46.2582 50.48 46.3222 50.508 46.3702 50.564C46.4262 50.612 46.4542 50.676 46.4542 50.756V52.76H47.9422C48.0222 52.76 48.0862 52.788 48.1342 52.844C48.1902 52.892 48.2182 52.956 48.2182 53.036V53.444C48.2182 53.524 48.1902 53.592 48.1342 53.648C48.0862 53.696 48.0222 53.72 47.9422 53.72H46.4542V56.804C46.4542 57.204 46.5222 57.508 46.6582 57.716C46.7942 57.916 47.0182 58.016 47.3302 58.016H48.0622C48.1422 58.016 48.2062 58.044 48.2542 58.1C48.3102 58.148 48.3382 58.212 48.3382 58.292V58.724C48.3382 58.804 48.3102 58.872 48.2542 58.928C48.2062 58.976 48.1422 59 48.0622 59H47.2342ZM52.0417 59.12C51.1617 59.12 50.4777 58.872 49.9897 58.376C49.5097 57.88 49.2537 57.22 49.2217 56.396L49.2097 55.88L49.2217 55.364C49.2537 54.548 49.5137 53.892 50.0017 53.396C50.4897 52.892 51.1697 52.64 52.0417 52.64C52.9137 52.64 53.5937 52.892 54.0817 53.396C54.5697 53.892 54.8297 54.548 54.8617 55.364C54.8697 55.452 54.8737 55.624 54.8737 55.88C54.8737 56.136 54.8697 56.308 54.8617 56.396C54.8297 57.22 54.5697 57.88 54.0817 58.376C53.6017 58.872 52.9217 59.12 52.0417 59.12ZM52.0417 58.196C52.5457 58.196 52.9417 58.036 53.2297 57.716C53.5257 57.396 53.6857 56.936 53.7097 56.336C53.7177 56.256 53.7217 56.104 53.7217 55.88C53.7217 55.656 53.7177 55.504 53.7097 55.424C53.6857 54.824 53.5257 54.364 53.2297 54.044C52.9417 53.724 52.5457 53.564 52.0417 53.564C51.5377 53.564 51.1377 53.724 50.8417 54.044C50.5457 54.364 50.3897 54.824 50.3737 55.424L50.3617 55.88L50.3737 56.336C50.3897 56.936 50.5457 57.396 50.8417 57.716C51.1377 58.036 51.5377 58.196 52.0417 58.196ZM56.6523 59C56.5723 59 56.5043 58.976 56.4483 58.928C56.4003 58.872 56.3763 58.804 56.3763 58.724V53.048C56.3763 52.968 56.4003 52.9 56.4483 52.844C56.5043 52.788 56.5723 52.76 56.6523 52.76H57.2043C57.2843 52.76 57.3523 52.788 57.4083 52.844C57.4643 52.9 57.4923 52.968 57.4923 53.048V53.576C57.8203 53.032 58.3803 52.76 59.1723 52.76H59.6403C59.7203 52.76 59.7843 52.788 59.8323 52.844C59.8883 52.892 59.9163 52.956 59.9163 53.036V53.528C59.9163 53.608 59.8883 53.672 59.8323 53.72C59.7843 53.768 59.7203 53.792 59.6403 53.792H58.9203C58.4883 53.792 58.1483 53.92 57.9003 54.176C57.6523 54.424 57.5283 54.764 57.5283 55.196V58.724C57.5283 58.804 57.5003 58.872 57.4443 58.928C57.3883 58.976 57.3203 59 57.2403 59H56.6523ZM62.0269 61.28C61.9629 61.28 61.9069 61.256 61.8589 61.208C61.8109 61.16 61.7869 61.104 61.7869 61.04C61.7869 60.984 61.8069 60.912 61.8469 60.824L62.7709 58.628L60.4789 53.216C60.4389 53.112 60.4189 53.044 60.4189 53.012C60.4189 52.94 60.4429 52.88 60.4909 52.832C60.5389 52.784 60.5989 52.76 60.6709 52.76H61.2589C61.3869 52.76 61.4829 52.828 61.5469 52.964L63.3709 57.332L65.2429 52.964C65.3069 52.828 65.4069 52.76 65.5429 52.76H66.1069C66.1789 52.76 66.2389 52.784 66.2869 52.832C66.3349 52.88 66.3589 52.936 66.3589 53C66.3589 53.024 66.3389 53.096 66.2989 53.216L62.8909 61.076C62.8269 61.212 62.7269 61.28 62.5909 61.28H62.0269Z" fill="white"/>
<path d="M49 17H41M41 17L43 19M41 17L44 14" stroke="white" stroke-linecap="round"/>
<path d="M41 22H49M49 22L46 25M49 22L47 20" stroke="white" stroke-linecap="round"/>
</svg>
